     ----------LUCKY Kannada DVDRip (2012) ~BindassBro's~----------------
        -----------------BindassBro Release ----------------------
 

ABOUT THE MOVIE:
Lucky is a 2012 Kannada romantic film starring Yash and Ramya in the lead roles. The film is directed by Dr.Soori, a Veterinarian doctor by profession, who makes his debut in film direction. Arjun Janya is the music director of the film. Actress turned producer, Radhika Kumaraswamy has produced the venture under Shamika productionsalong with the assistance of H. D. Kumaraswamy. The film released across Karnataka cinema halls on 23 February 2012

PLOT:
The storyline is light-hearted and revolves around Vikram Kumar alias Lucky (Yash) who is in love with a television anchor Gowri (Ramya). Gowri gives Lucky the cold shoulder, and helping her keep Lucky at an armΓÇÖs length is her dog Joo Joo. Gowri is compelled to resign from her job and takes over as creative head of an advertisingcompany. Lucky comes for a job interview and figuring that Gowri would probably not let him get a job in her work place, he takes on a different identity, Vicky, complete with new wardrobe and changed hairstyle. As Vicky builds a rapport with Gowri, he comes to know that sheΓÇÖs pining for Lucky

Video
ID : 1
Format : AVC
Format/Info : Advanced Video Codec
Format profile : High@L3.0
Format settings, CABAC : Yes
Format settings, ReFrames : 8 frames
Codec ID : V_MPEG4/ISO/AVC
Duration : 2h 26mn
Bit rate : 698 Kbps
Width : 704 pixels
Height : 304 pixels
Display aspect ratio : 2.35:1
Frame rate : 29.970 fps
Color space : YUV
Chroma subsampling : 4:2:0
Bit depth : 8 bits
Scan type : Progressive
Bits/(Pixel*Frame) : 0.109
Stream size : 715 MiB (74%)

Audio
ID : 2
Format : AC-3
Format/Info : Audio Coding 3
Mode extension : CM (complete main)
Format settings, Endianness : Big
Codec ID : A_AC3
Duration : 2h 26mn
Bit rate mode : Constant
Bit rate : 224 Kbps
Channel(s) : 2 channels
Channel positions : Front: L R
Sampling rate : 48.0 KHz
Bit depth : 16 bits
Compression mode : Lossy
Delay relative to video : 7s 200ms
Stream size : 235 MiB (24%)
Default : Yes
Forced : No

Took 7 Hours to Encode & 24+... Hours to Upload & Seed
Took 20 Minutes to Create Description/Screen Shots etc...
Takes 10 Seconds to say "Thank You", and RATE :)

"ENJOY The Movie Folks :)"